<svg width="57" height="57" viewBox="0 0 57 57" fill="none" xmlns="http://www.w3.org/2000/svg">
<g clip-path="url(#clip0)">
<rect x="28.5763" y="54.4438" width="37" height="37" transform="rotate(-135.643 28.5763 54.4438)" stroke="white" stroke-width="3"/>
<path d="M32.4062 30.2031C32.4062 31.2266 32.2305 32.168 31.8789 33.0273C31.5273 33.8867 31.0391 34.6289 30.4141 35.2539C29.7891 35.8789 29.0469 36.3672 28.1875 36.7188C27.3359 37.0625 26.4062 37.2344 25.3984 37.2344H21.2734C20.2656 37.2344 19.332 37.0625 18.4727 36.7188C17.6133 36.3672 16.8711 35.8789 16.2461 35.2539C15.6211 34.6289 15.1289 33.8867 14.7695 33.0273C14.418 32.168 14.2422 31.2266 14.2422 30.2031V26.9922C14.2422 25.9766 14.418 25.0391 14.7695 24.1797C15.1289 23.3125 15.6211 22.5703 16.2461 21.9531C16.8711 21.3281 17.6133 20.8398 18.4727 20.4883C19.332 20.1367 20.2656 19.9609 21.2734 19.9609H25.3984C26.4062 19.9609 27.3359 20.1367 28.1875 20.4883C29.0469 20.8398 29.7891 21.3281 30.4141 21.9531C31.0391 22.5703 31.5273 23.3125 31.8789 24.1797C32.2305 25.0391 32.4062 25.9766 32.4062 26.9922V30.2031ZM29.3594 26.9922C29.3594 26.3906 29.2617 25.8477 29.0664 25.3633C28.8789 24.8711 28.6094 24.4531 28.2578 24.1094C27.9141 23.7578 27.4961 23.4883 27.0039 23.3008C26.5195 23.1055 25.9844 23.0078 25.3984 23.0078H21.2734C20.6797 23.0078 20.1367 23.1055 19.6445 23.3008C19.1602 23.4883 18.7422 23.7578 18.3906 24.1094C18.0391 24.4531 17.7656 24.8711 17.5703 25.3633C17.3828 25.8477 17.2891 26.3906 17.2891 26.9922V30.2031C17.2891 30.8047 17.3828 31.3516 17.5703 31.8438C17.7656 32.3281 18.0391 32.7461 18.3906 33.0977C18.7422 33.4414 19.1602 33.7109 19.6445 33.9062C20.1367 34.0938 20.6797 34.1875 21.2734 34.1875H25.375C25.9688 34.1875 26.5078 34.0938 26.9922 33.9062C27.4844 33.7109 27.9062 33.4414 28.2578 33.0977C28.6094 32.7461 28.8789 32.3281 29.0664 31.8438C29.2617 31.3516 29.3594 30.8047 29.3594 30.2031V26.9922ZM40.6445 37H39.2852C38.8477 37 38.3789 36.9258 37.8789 36.7773C37.3867 36.6289 36.9258 36.3867 36.4961 36.0508C36.0664 35.707 35.7109 35.2656 35.4297 34.7266C35.1484 34.1797 35.0078 33.5117 35.0078 32.7227V18.9766H38.0547V32.7227C38.0547 33.0977 38.1719 33.3984 38.4062 33.625C38.6406 33.8438 38.9336 33.9531 39.2852 33.9531H40.6445V37Z" fill="white"/>
</g>
<defs>
<clipPath id="clip0">
<rect width="57" height="57" fill="white"/>
</clipPath>
</defs>
</svg>
