<svg width="50" height="50" viewBox="0 0 50 50" fill="none" xmlns="http://www.w3.org/2000/svg">
<path d="M3.81941 16.2264C7.36992 7.65435 15.7351 2.06577 25.0132 2.06744L25.0145 2.06744C31.1001 2.05274 36.9389 4.47277 41.23 8.78826L41.231 8.78926C50.1876 17.7462 50.1876 32.2677 41.231 41.224L41.5845 41.5775L41.231 41.224C32.2743 50.181 17.7529 50.181 8.7959 41.224L8.79579 41.2239C2.23315 34.6653 0.269553 24.7987 3.81941 16.2264ZM3.81941 16.2264L3.35747 16.035M3.81941 16.2264L3.35747 16.035M3.35747 16.035C6.98538 7.27615 15.5329 1.56574 25.0133 1.56745L3.35747 16.035ZM25.0133 45.7657C13.5698 45.7657 4.25457 36.4501 4.25457 25.0066C4.25457 13.5632 13.5698 4.24794 25.0133 4.24794C36.4567 4.24794 45.7723 13.5632 45.7723 25.0066C45.7723 36.4501 36.4567 45.7657 25.0133 45.7657ZM3.25459 25.0066C3.25459 37.0023 13.0175 46.7656 25.0133 46.7656C37.009 46.7656 46.7723 37.0024 46.7723 25.0066C46.7723 13.0109 37.009 3.24796 25.0133 3.24796C13.0175 3.24796 3.25459 13.0109 3.25459 25.0066Z" fill="white" stroke="white" stroke-width="0.999984"/>
<path d="M26.0162 14.1484C25.5921 13.724 24.9041 13.724 24.4793 14.1484C24.0549 14.5725 24.0549 15.2608 24.4793 15.6853L32.7103 23.9163H10.8407C10.2388 23.9163 9.75049 24.4045 9.75049 25.0065C9.75049 25.6088 10.2388 26.0968 10.8407 26.0968H32.6994L24.4684 34.3278C24.2642 34.5313 24.1495 34.8082 24.1495 35.0964C24.1495 35.3849 24.2642 35.6611 24.4684 35.865C24.6726 36.0709 24.9522 36.1849 25.2424 36.1811C25.5316 36.1798 25.8092 36.0664 26.0162 35.865L36.1006 25.7809C36.3058 25.5754 36.4202 25.2964 36.4171 25.0065C36.415 24.7173 36.3017 24.4407 36.1006 24.2328L26.0162 14.1484Z" fill="black"/>
</svg>
